# ProBuilder 4.5.2
# https://unity3d.com/unity/features/worldbuilding/probuilder
# 29.07.2021 18:12:47

mtllib ./Pipe.mtl
o Pipe

g Pipe
v -5.706339 -0.5 1.854102
v -6 -0.5 0
v -5.706339 0 1.854102
v -6 0 0
v -5.8 -0.5 0
v -5.516128 -0.5 1.792299
v -5.8 0 0
v -5.516128 0 1.792299
v -4.854102 -0.5 3.526711
v -4.854102 0 3.526711
v -4.692299 -0.5 3.409154
v -4.692299 0 3.409154
v -3.526712 -0.5 4.854102
v -3.526712 0 4.854102
v -3.409155 -0.5 4.692299
v -3.409155 0 4.692299
v -1.854102 -0.5 5.706339
v -1.854102 0 5.706339
v -1.792298 -0.5 5.516128
v -1.792298 0 5.516128
v 4.768372E-07 -0.5 6
v 4.768372E-07 0 6
v 4.768372E-07 -0.5 5.8
v 4.768372E-07 0 5.8
v 1.854102 -0.5 5.706339
v 1.854102 0 5.706339
v 1.792298 -0.5 5.516128
v 1.792298 0 5.516128
v 3.526711 -0.5 4.854102
v 3.526711 0 4.854102
v 3.409154 -0.5 4.692299
v 3.409154 0 4.692299
v 4.854102 -0.5 3.526711
v 4.854102 0 3.526711
v 4.692299 -0.5 3.409154
v 4.692299 0 3.409154
v 5.706339 -0.5 1.854102
v 5.706339 0 1.854102
v 5.516128 -0.5 1.792299
v 5.516128 0 1.792299
v 6 -0.5 -5.245366E-07
v 6 0 -5.245366E-07
v 5.8 -0.5 -5.070521E-07
v 5.8 0 -5.070521E-07
v 5.706339 -0.5 -1.854102
v 5.706339 0 -1.854102
v 5.516129 -0.5 -1.792299
v 5.516129 0 -1.792299
v 4.854102 -0.5 -3.526711
v 4.854102 0 -3.526711
v 4.692299 -0.5 -3.409154
v 4.692299 0 -3.409154
v 3.526712 -0.5 -4.854101
v 3.526712 0 -4.854101
v 3.409156 -0.5 -4.692298
v 3.409156 0 -4.692298
v 1.854103 -0.5 -5.706339
v 1.854103 0 -5.706339
v 1.792299 -0.5 -5.516128
v 1.792299 0 -5.516128
v 0 -0.5 -6
v 0 0 -6
v 0 -0.5 -5.8
v 0 0 -5.8
v -1.854103 -0.5 -5.706339
v -1.854103 0 -5.706339
v -1.792299 -0.5 -5.516128
v -1.792299 0 -5.516128
v -3.526711 -0.5 -4.854103
v -3.526711 0 -4.854103
v -3.409153 -0.5 -4.692299
v -3.409153 0 -4.692299
v -4.854102 -0.5 -3.526712
v -4.854102 0 -3.526712
v -4.692298 -0.5 -3.409155
v -4.692298 0 -3.409155
v -5.706339 -0.5 -1.854102
v -5.706339 0 -1.854102
v -5.516128 -0.5 -1.792298
v -5.516128 0 -1.792298
v -5.706339 0.5 1.854102
v -6 0.5 0
v -5.8 0.5 0
v -5.516128 0.5 1.792299
v -4.854102 0.5 3.526711
v -4.692299 0.5 3.409154
v -3.526712 0.5 4.854102
v -3.409155 0.5 4.692299
v -1.854102 0.5 5.706339
v -1.792298 0.5 5.516128
v 4.768372E-07 0.5 6
v 4.768372E-07 0.5 5.8
v 1.854102 0.5 5.706339
v 1.792298 0.5 5.516128
v 3.526711 0.5 4.854102
v 3.409154 0.5 4.692299
v 4.854102 0.5 3.526711
v 4.692299 0.5 3.409154
v 5.706339 0.5 1.854102
v 5.516128 0.5 1.792299
v 6 0.5 -5.245366E-07
v 5.8 0.5 -5.070521E-07
v 5.706339 0.5 -1.854102
v 5.516129 0.5 -1.792299
v 4.854102 0.5 -3.526711
v 4.692299 0.5 -3.409154
v 3.526712 0.5 -4.854101
v 3.409156 0.5 -4.692298
v 1.854103 0.5 -5.706339
v 1.792299 0.5 -5.516128
v 0 0.5 -6
v 0 0.5 -5.8
v -1.854103 0.5 -5.706339
v -1.792299 0.5 -5.516128
v -3.526711 0.5 -4.854103
v -3.409153 0.5 -4.692299
v -4.854102 0.5 -3.526712
v -4.692298 0.5 -3.409155
v -5.706339 0.5 -1.854102
v -5.516128 0.5 -1.792298

vt 0.9386076 -0.5
vt -0.938606 -0.5
vt 0.9386076 0
vt -0.938606 0
vt 0.9073197 -0.5
vt -0.9073202 -0.5
vt 0.9073197 0
vt -0.9073202 0
vt 0.9386076 0.5
vt -0.938606 0.5
vt 0.9073197 0.5
vt -0.9073202 0.5
vt -6 0
vt -5.706339 1.854102
vt -5.8 0
vt -5.516128 1.792299
vt 5.706339 1.854102
vt 6 0
vt 5.516128 1.792299
vt 5.8 0
vt -4.854102 3.526711
vt -4.692299 3.409154
vt 4.854102 3.526711
vt 4.692299 3.409154
vt -3.526712 4.854102
vt -3.409155 4.692299
vt 3.526712 4.854102
vt 3.409155 4.692299
vt -1.854102 5.706339
vt -1.792298 5.516128
vt 1.854102 5.706339
vt 1.792298 5.516128
vt 4.768372E-07 6
vt 4.768372E-07 5.8
vt 5.706339 -1.854102
vt 5.516129 -1.792299
vt -5.706339 -1.854102
vt -5.516129 -1.792299
vt 4.854102 -3.526711
vt 4.692299 -3.409154
vt -4.854102 -3.526711
vt -4.692299 -3.409154
vt 3.526712 -4.854101
vt 3.409156 -4.692298
vt -3.526712 -4.854101
vt -3.409156 -4.692298
vt 1.854103 -5.706339
vt 1.792299 -5.516128
vt -1.854103 -5.706339
vt -1.792299 -5.516128
vt 0 -6
vt 0 -5.8

vn -0.9876884 0 0.1564343
vn 0.9876884 0 -0.1564344
vn -0.8910065 0 0.4539906
vn 0.8910065 0 -0.4539905
vn -0.7071069 0 0.7071066
vn 0.7071069 0 -0.7071066
vn -0.4539905 0 0.8910065
vn 0.4539903 0 -0.8910066
vn -0.1564343 0 0.9876884
vn 0.1564344 0 -0.9876884
vn 0.1564344 0 0.9876884
vn -0.1564345 0 -0.9876884
vn 0.4539907 0 0.8910064
vn -0.4539905 0 -0.8910065
vn 0.7071066 0 0.7071069
vn -0.7071067 0 -0.7071068
vn 0.8910065 0 0.4539905
vn -0.8910066 0 -0.4539904
vn 0.9876884 0 0.1564345
vn -0.9876883 0 -0.1564346
vn 0 -1 0
vn 0 1 0

usemtl ProBuilderDefault
f 3/3/1 4/4/1 2/2/1 1/1/1
f 7/7/2 8/8/2 6/6/2 5/5/2
f 10/3/3 3/4/3 1/2/3 9/1/3
f 8/7/4 12/8/4 11/6/4 6/5/4
f 14/3/5 10/4/5 9/2/5 13/1/5
f 12/7/6 16/8/6 15/6/6 11/5/6
f 18/3/7 14/4/7 13/2/7 17/1/7
f 16/7/8 20/8/8 19/6/8 15/5/8
f 22/3/9 18/4/9 17/2/9 21/1/9
f 20/7/10 24/8/10 23/6/10 19/5/10
f 26/3/11 22/4/11 21/2/11 25/1/11
f 24/7/12 28/8/12 27/6/12 23/5/12
f 30/3/13 26/4/13 25/2/13 29/1/13
f 28/7/14 32/8/14 31/6/14 27/5/14
f 34/3/15 30/4/15 29/2/15 33/1/15
f 32/7/16 36/8/16 35/6/16 31/5/16
f 38/3/17 34/4/17 33/2/17 37/1/17
f 36/7/18 40/8/18 39/6/18 35/5/18
f 42/3/19 38/4/19 37/2/19 41/1/19
f 40/7/20 44/8/20 43/6/20 39/5/20
f 46/3/2 42/4/2 41/2/2 45/1/2
f 44/7/1 48/8/1 47/6/1 43/5/1
f 50/3/4 46/4/4 45/2/4 49/1/4
f 48/7/3 52/8/3 51/6/3 47/5/3
f 54/3/6 50/4/6 49/2/6 53/1/6
f 52/7/5 56/8/5 55/6/5 51/5/5
f 58/3/8 54/4/8 53/2/8 57/1/8
f 56/7/7 60/8/7 59/6/7 55/5/7
f 62/3/10 58/4/10 57/2/10 61/1/10
f 60/7/9 64/8/9 63/6/9 59/5/9
f 66/3/12 62/4/12 61/2/12 65/1/12
f 64/7/11 68/8/11 67/6/11 63/5/11
f 70/3/14 66/4/14 65/2/14 69/1/14
f 68/7/13 72/8/13 71/6/13 67/5/13
f 74/3/16 70/4/16 69/2/16 73/1/16
f 72/7/15 76/8/15 75/6/15 71/5/15
f 78/3/18 74/4/18 73/2/18 77/1/18
f 76/7/17 80/8/17 79/6/17 75/5/17
f 4/3/20 78/4/20 77/2/20 2/1/20
f 80/7/19 7/8/19 5/6/19 79/5/19
f 81/9/1 82/10/1 4/4/1 3/3/1
f 83/11/2 84/12/2 8/8/2 7/7/2
f 85/9/3 81/10/3 3/4/3 10/3/3
f 84/11/4 86/12/4 12/8/4 8/7/4
f 87/9/5 85/10/5 10/4/5 14/3/5
f 86/11/6 88/12/6 16/8/6 12/7/6
f 89/9/7 87/10/7 14/4/7 18/3/7
f 88/11/8 90/12/8 20/8/8 16/7/8
f 91/9/9 89/10/9 18/4/9 22/3/9
f 90/11/10 92/12/10 24/8/10 20/7/10
f 93/9/11 91/10/11 22/4/11 26/3/11
f 92/11/12 94/12/12 28/8/12 24/7/12
f 95/9/13 93/10/13 26/4/13 30/3/13
f 94/11/14 96/12/14 32/8/14 28/7/14
f 97/9/15 95/10/15 30/4/15 34/3/15
f 96/11/16 98/12/16 36/8/16 32/7/16
f 99/9/17 97/10/17 34/4/17 38/3/17
f 98/11/18 100/12/18 40/8/18 36/7/18
f 101/9/19 99/10/19 38/4/19 42/3/19
f 100/11/20 102/12/20 44/8/20 40/7/20
f 103/9/2 101/10/2 42/4/2 46/3/2
f 102/11/1 104/12/1 48/8/1 44/7/1
f 105/9/4 103/10/4 46/4/4 50/3/4
f 104/11/3 106/12/3 52/8/3 48/7/3
f 107/9/6 105/10/6 50/4/6 54/3/6
f 106/11/5 108/12/5 56/8/5 52/7/5
f 109/9/8 107/10/8 54/4/8 58/3/8
f 108/11/7 110/12/7 60/8/7 56/7/7
f 111/9/10 109/10/10 58/4/10 62/3/10
f 110/11/9 112/12/9 64/8/9 60/7/9
f 113/9/12 111/10/12 62/4/12 66/3/12
f 112/11/11 114/12/11 68/8/11 64/7/11
f 115/9/14 113/10/14 66/4/14 70/3/14
f 114/11/13 116/12/13 72/8/13 68/7/13
f 117/9/16 115/10/16 70/4/16 74/3/16
f 116/11/15 118/12/15 76/8/15 72/7/15
f 119/9/18 117/10/18 74/4/18 78/3/18
f 118/11/17 120/12/17 80/8/17 76/7/17
f 82/9/20 119/10/20 78/4/20 4/3/20
f 120/11/19 83/12/19 7/8/19 80/7/19
f 5/15/21 6/16/21 1/14/21 2/13/21
f 84/19/22 83/20/22 82/18/22 81/17/22
f 6/16/21 11/22/21 9/21/21 1/14/21
f 86/24/22 84/19/22 81/17/22 85/23/22
f 11/22/21 15/26/21 13/25/21 9/21/21
f 88/28/22 86/24/22 85/23/22 87/27/22
f 15/26/21 19/30/21 17/29/21 13/25/21
f 90/32/22 88/28/22 87/27/22 89/31/22
f 19/30/21 23/34/21 21/33/21 17/29/21
f 92/34/22 90/32/22 89/31/22 91/33/22
f 23/34/21 27/32/21 25/31/21 21/33/21
f 94/30/22 92/34/22 91/33/22 93/29/22
f 27/32/21 31/28/21 29/27/21 25/31/21
f 96/26/22 94/30/22 93/29/22 95/25/22
f 31/28/21 35/24/21 33/23/21 29/27/21
f 98/22/22 96/26/22 95/25/22 97/21/22
f 35/24/21 39/19/21 37/17/21 33/23/21
f 100/16/22 98/22/22 97/21/22 99/14/22
f 39/19/21 43/20/21 41/18/21 37/17/21
f 102/15/22 100/16/22 99/14/22 101/13/22
f 43/20/21 47/36/21 45/35/21 41/18/21
f 104/38/22 102/15/22 101/13/22 103/37/22
f 47/36/21 51/40/21 49/39/21 45/35/21
f 106/42/22 104/38/22 103/37/22 105/41/22
f 51/40/21 55/44/21 53/43/21 49/39/21
f 108/46/22 106/42/22 105/41/22 107/45/22
f 55/44/21 59/48/21 57/47/21 53/43/21
f 110/50/22 108/46/22 107/45/22 109/49/22
f 59/48/21 63/52/21 61/51/21 57/47/21
f 112/52/22 110/50/22 109/49/22 111/51/22
f 63/52/21 67/50/21 65/49/21 61/51/21
f 114/48/22 112/52/22 111/51/22 113/47/22
f 67/50/21 71/46/21 69/45/21 65/49/21
f 116/44/22 114/48/22 113/47/22 115/43/22
f 71/46/21 75/42/21 73/41/21 69/45/21
f 118/40/22 116/44/22 115/43/22 117/39/22
f 75/42/21 79/38/21 77/37/21 73/41/21
f 120/36/22 118/40/22 117/39/22 119/35/22
f 79/38/21 5/15/21 2/13/21 77/37/21
f 83/20/22 120/36/22 119/35/22 82/18/22

